<svg width="27" height="26" viewBox="0 0 27 26" fill="none" xmlns="http://www.w3.org/2000/svg">
<path d="M9.48934 12.921C9.38721 12.0516 9.78177 11.519 10.6312 11.4189C11.4807 11.3233 11.9913 11.7512 12.0981 12.6205L12.4276 15.3926C12.5298 16.262 12.1352 16.7945 11.2857 16.8946C10.4363 16.9902 9.92567 16.5624 9.81891 15.693L9.48934 12.921ZM10.6869 15.6566C10.7334 16.0298 10.9098 16.1709 11.1929 16.1345C11.4621 16.1026 11.6153 15.9251 11.5735 15.5519L11.23 12.657C11.1836 12.2837 10.9933 12.1472 10.7241 12.179C10.4409 12.2109 10.3017 12.3884 10.3434 12.7616L10.6869 15.6566ZM14.0291 11.0911L14.8275 11.0001L12.4416 19.8305L11.6432 19.9216L14.0291 11.0911ZM14.1219 15.52C14.0198 14.6506 14.4144 14.1181 15.2638 14.0179C16.1133 13.9223 16.6239 14.3502 16.7307 15.2196L17.0603 17.9916C17.1624 18.861 16.7678 19.3936 15.9183 19.4937C15.0689 19.5893 14.5583 19.1614 14.4515 18.292L14.1219 15.52ZM15.3195 18.2556C15.366 18.6289 15.5424 18.77 15.8255 18.7336C16.0947 18.7017 16.2479 18.5242 16.2061 18.1509L15.8626 15.256C15.8162 14.8828 15.6259 14.7462 15.3567 14.7781C15.0735 14.8099 14.9343 14.9875 14.976 15.3607L15.3195 18.2556Z" fill="white"/>
<path d="M19.0792 21.3918L9.02955 22.5479C8.55143 22.6026 8.12438 22.2703 8.06868 21.8014L6.8525 11.6237C6.80609 11.2413 6.94534 10.8544 7.22385 10.5859L11.4201 6.53027C11.8379 6.12516 12.4785 6.05234 12.9798 6.35275L18.0162 9.34781C18.3551 9.54809 18.5779 9.88947 18.6243 10.2764L19.8405 20.4541C19.8962 20.923 19.5573 21.3417 19.0792 21.3963V21.3918Z" stroke="white" stroke-linecap="round" stroke-linejoin="round"/>
<path d="M12.9939 7.65914C13.0356 8.00507 12.7803 8.31914 12.4276 8.36011C12.0748 8.40108 11.7545 8.15073 11.7127 7.80479C11.6709 7.45886 11.9262 7.14479 12.279 7.10382C12.6318 7.06286 12.9521 7.3132 12.9939 7.65914Z" stroke="white" stroke-linecap="round" stroke-linejoin="round"/>
<path d="M12.3529 0.531191C12.3529 0.531191 14.3165 7.94602 12.3529 7.73208" stroke="white" stroke-linecap="round" stroke-linejoin="round"/>
<path d="M11.8518 6.25263C12.2371 4.19068 14.1635 0.717683 14.1635 0.717683" stroke="white" stroke-linecap="round" stroke-linejoin="round"/>
<path d="M12.3532 7.73194C12.0932 7.70463 11.9354 7.55897 11.8518 7.33139" stroke="white" stroke-linecap="round" stroke-linejoin="round"/>
<path d="M21.1219 3.28033C22.8533 4.65041 24.2273 6.46657 25.0396 8.58314" stroke="white" stroke-linecap="round" stroke-linejoin="round"/>
<path d="M0.776422 9.86217C2.02973 5.15109 6.04496 1.39133 11.2671 0.640293C14.4096 0.189669 17.4501 0.904296 19.9381 2.44734" stroke="white" stroke-linecap="round" stroke-linejoin="round"/>
<path d="M4.7451 22.425C2.53092 20.536 0.966598 17.8869 0.507051 14.8145" stroke="white" stroke-linecap="round" stroke-linejoin="round"/>
<path d="M12.6179 25.4929C10.2413 25.4019 7.98996 24.6645 6.08214 23.4264" stroke="white" stroke-linecap="round" stroke-linejoin="round"/>
<path d="M25.7265 11.1913C26.7477 18.0189 21.9295 24.3686 14.962 25.37" stroke="white" stroke-linecap="round" stroke-linejoin="round"/>
</svg>
