<svg width="37" height="37" viewBox="0 0 37 37" fill="none" xmlns="http://www.w3.org/2000/svg">
<path d="M11.8861 18.5C11.8861 18.7467 11.9249 18.9779 12.0026 19.1938C12.0791 19.4096 12.2098 19.61 12.3948 19.795L17.2048 24.605C17.544 24.9442 17.9757 25.1138 18.4998 25.1138C19.024 25.1138 19.4557 24.9442 19.7948 24.605C20.134 24.2658 20.3036 23.8342 20.3036 23.31C20.3036 22.7858 20.134 22.3542 19.7948 22.015L18.1298 20.35L24.0498 20.35C24.574 20.35 25.0137 20.173 25.3689 19.8191C25.7229 19.4639 25.8998 19.0242 25.8998 18.5C25.8998 17.9758 25.7229 17.5368 25.3689 17.1828C25.0137 16.8276 24.574 16.65 24.0498 16.65L18.1298 16.65L19.7948 14.985C20.134 14.6458 20.3036 14.2142 20.3036 13.69C20.3036 13.1658 20.134 12.7342 19.7948 12.395C19.4557 12.0558 19.024 11.8863 18.4998 11.8863C17.9757 11.8863 17.544 12.0558 17.2048 12.395L12.3948 17.205C12.2098 17.39 12.0791 17.5904 12.0026 17.8063C11.9249 18.0221 11.8861 18.2533 11.8861 18.5ZM-0.000162483 18.5C-0.000162371 15.9408 0.485772 13.5358 1.45764 11.285C2.42827 9.03417 3.74609 7.07625 5.41109 5.41125C7.07609 3.74625 9.03401 2.42843 11.2848 1.4578C13.5357 0.485933 15.9407 -9.20526e-07 18.4998 -8.08661e-07C21.059 -6.96796e-07 23.464 0.485933 25.7148 1.4578C27.9657 2.42843 29.9236 3.74625 31.5886 5.41125C33.2536 7.07625 34.572 9.03417 35.5439 11.285C36.5145 13.5358 36.9998 15.9408 36.9998 18.5C36.9998 21.0592 36.5145 23.4642 35.5439 25.715C34.572 27.9658 33.2536 29.9238 31.5886 31.5888C29.9236 33.2538 27.9657 34.5716 25.7148 35.5422C23.464 36.5141 21.059 37 18.4998 37C15.9407 37 13.5357 36.5141 11.2848 35.5422C9.03401 34.5716 7.07609 33.2538 5.41109 31.5888C3.74609 29.9238 2.42827 27.9658 1.45763 25.715C0.485771 23.4642 -0.000162594 21.0592 -0.000162483 18.5Z" fill="black"/>
</svg>
