<svg width="187" height="179" viewBox="0 0 187 179" fill="none" xmlns="http://www.w3.org/2000/svg">
<path d="M7.57236 61.7435C23.7852 45.8544 37.5127 59.1851 43.2938 37.8469C56.3575 -10.3546 110.539 -9.88332 117.666 24.404C130.506 86.1832 186.413 46.9495 185.997 91.2013C185.553 138.442 150.124 175.239 86.5816 178.915C29.6168 182.209 -19.2874 88.0728 7.57236 61.7435Z" fill="#37A054"/>
<path opacity="0.7" d="M7.57385 67.5107C23.7868 52.4029 37.5143 65.0781 43.2955 44.7893C56.3592 -1.04186 110.541 -0.593743 117.668 32.0074C130.508 90.7485 186.415 53.4443 185.999 95.5198C185.555 140.438 150.126 175.425 86.5834 178.92C29.6184 182.052 -19.286 92.5452 7.57385 67.5107Z" fill="#45C869"/>
</svg>
