<svg width="34" height="40" viewBox="0 0 34 40" fill="none" xmlns="http://www.w3.org/2000/svg">
<g clip-path="url(#clip0_112_346)">
<path d="M21.8487 37.308C23.0242 37.308 24.2143 37.3273 25.4045 37.2887C25.62 37.2839 25.8747 37.0958 26.0314 36.9173C26.7416 36.0924 27.2117 35.1759 27.2068 34.0422C27.1921 28.7215 27.2019 23.3958 27.2019 18.075V17.6457C24.4249 16.9945 22.4169 15.3061 20.6733 13.2463C20.4431 12.9762 20.5606 11.968 19.8896 11.5193C19.3754 11.172 18.5477 11.1527 18.1118 11.5386C17.6514 11.9438 18.0432 12.5902 17.715 13.2897C17.1959 14.3847 16.2212 15.1517 15.0311 15.7644C13.3414 16.6327 11.5096 17.0668 9.6338 17.3225C8.71792 17.4479 7.78736 17.5058 6.80781 17.6023V17.9979C6.80781 20.0625 6.80781 22.132 6.80781 24.1966C6.80781 24.404 6.79312 24.6163 6.75394 24.8189C6.70006 25.1132 6.52374 25.2627 6.1956 25.2627C5.3336 25.253 4.4716 25.2772 3.6047 25.253C1.69459 25.2048 0.0195669 23.5213 0.0048737 21.6399C-0.00492175 20.0336 -0.00492175 18.4224 0.00977142 16.816C0.0244646 15.007 1.58194 13.3717 3.42348 13.2415C4.06998 13.1981 4.72138 13.2318 5.43645 13.2318C5.43645 13.0099 5.43645 12.8459 5.43645 12.6819C5.39237 10.9983 5.47563 9.32926 6.08785 7.73737C7.73348 3.49231 10.775 0.829505 15.3641 0.130036C21.0406 -0.738271 26.4477 2.77355 28.0737 8.23423C28.4802 9.60423 28.5929 11.0032 28.5586 12.4214C28.5537 12.6433 28.5586 12.8652 28.5635 13.0871C28.5635 13.1112 28.5831 13.1353 28.6125 13.1981C29.2002 13.1981 29.8075 13.1981 30.4148 13.1981C32.6433 13.1981 33.9559 14.4474 33.9853 16.652C34.0098 18.4031 33.9951 20.159 33.9853 21.9101C33.9755 22.8459 33.6522 23.6756 33.0057 24.3703C32.467 24.9491 31.7862 25.2386 30.9928 25.253C30.1993 25.2627 29.4059 25.253 28.5586 25.253C28.5586 25.4364 28.5586 25.5907 28.5586 25.7403C28.5586 28.5671 28.5537 31.3891 28.5635 34.2159C28.5684 35.4894 28.1423 36.5989 27.3489 37.583C26.7807 38.2825 26.0608 38.6829 25.1155 38.6587C24.0135 38.6346 22.9164 38.6539 21.8242 38.6539C21.4569 39.7827 21.163 39.995 19.9876 39.995C18.3028 39.995 16.6131 39.995 14.9282 39.995C13.4295 39.9901 12.2296 38.7938 12.2345 37.3129C12.2345 35.8995 13.4393 34.5922 14.9282 34.6259C16.7061 34.6645 18.484 34.6356 20.2668 34.6356C20.9133 34.6356 21.2953 34.8575 21.4863 35.4894C21.6577 36.0586 21.7214 36.6616 21.8487 37.308ZM27.153 13.2077C27.6672 7.46723 24.5817 4.2352 21.4373 2.69154C17.7738 0.89704 13.3953 1.50003 10.2558 4.2159C8.94322 5.34952 7.99306 6.72917 7.38085 8.34036C6.76373 9.9612 6.77353 11.6399 6.86658 13.3283C6.97923 13.1836 7.0478 13.0292 7.14086 12.8845C7.98327 11.5386 8.75221 10.1445 9.68278 8.86617C10.8631 7.24533 12.3912 6.00075 14.3748 5.39294C18.3126 4.18696 22.8626 5.82709 25.3016 9.30997C26.1391 10.5063 26.7318 11.8088 27.1579 13.1981L27.153 13.2077Z" fill="#050505"/>
<path d="M8.1548 15.3835C9.50657 15.1085 10.8094 14.8915 12.0926 14.5683C13.4101 14.2354 14.6786 13.6807 15.8589 12.8365C17.1127 11.9392 18.1609 10.767 18.8808 9.14134C18.9102 9.06898 18.9543 9.00627 18.9053 9.08345C19.4881 9.75398 20.0563 10.4342 20.6489 11.0854C22.1231 12.711 23.7394 14.0376 25.5613 14.9156C25.767 15.0121 25.8454 15.1423 25.8405 15.4317C25.8307 17.7955 25.865 20.1544 25.8258 22.5181C25.7327 27.9981 22.559 32.8702 18.4057 33.8398C15.5749 34.5007 13.1309 33.3526 11.0738 30.8345C9.12945 28.4563 8.16949 25.4896 8.1548 22.0309C8.145 19.9614 8.1548 17.8919 8.1499 15.8177C8.1499 15.6633 8.1499 15.5137 8.1499 15.3883L8.1548 15.3835Z" fill="#285BDA"/>
</g>
<defs>
<clipPath id="clip0_112_346">
<rect width="34" height="40" fill="white"/>
</clipPath>
</defs>
</svg>
