<svg width="22" height="21" viewBox="0 0 22 21" fill="none" xmlns="http://www.w3.org/2000/svg">
<g clip-path="url(#clip0_112_535)">
<path d="M4.10276 17.1343C4.51898 15.8836 4.13844 14.9172 3.62709 13.9052C1.1179 9.10719 4.40006 3.35408 10.0011 2.68326C15.1384 2.06929 19.5979 6.10557 19.2292 11.0401C18.8249 16.5203 12.8195 19.954 7.59898 17.6459C6.49303 17.157 5.44655 16.7022 4.09087 17.1343H4.10276ZM7.20655 11.8018C7.87249 11.8018 8.44331 11.2561 8.43141 10.6194C8.41952 9.99403 7.87249 9.48239 7.20655 9.48239C6.5406 9.48239 6.00547 9.98266 5.98168 10.6194C5.96979 11.2561 6.52871 11.8018 7.19466 11.8018H7.20655ZM15.1503 11.8018C15.8282 11.8018 16.3633 11.2561 16.3395 10.608C16.3276 9.97129 15.7925 9.48239 15.1147 9.49376C14.4249 9.49376 13.9017 10.0168 13.9255 10.6876C13.9374 11.3129 14.4963 11.8246 15.1503 11.8132V11.8018ZM12.3795 10.6194C12.3795 9.97129 11.8087 9.47102 11.119 9.48239C10.453 9.50513 9.94168 10.0054 9.95357 10.6535C9.95357 11.2902 10.5006 11.8018 11.1547 11.7905C11.8325 11.7905 12.3795 11.2561 12.3676 10.608L12.3795 10.6194Z" fill="white"/>
<path d="M10.4052 0C17.3144 0 22.3327 5.07093 21.9879 11.0628C21.6549 16.8614 16.3987 21.3411 10.3576 20.9773C8.79977 20.8863 7.31328 20.5111 5.94572 19.7834C5.56518 19.5788 5.20842 19.556 4.8041 19.6243C4.10247 19.7493 3.40085 19.863 2.68734 19.9426C1.72409 20.0563 1.02247 19.3628 1.15328 18.4418C1.26031 17.7255 1.37923 17.0092 1.53382 16.3043C1.60518 15.9859 1.53382 15.7244 1.37923 15.4515C-0.452121 12.0292 -0.464013 8.59556 1.54572 5.27558C3.60301 1.81917 6.87328 0.136437 10.4052 0ZM4.10247 17.1343C5.45815 16.6909 6.51653 17.157 7.61058 17.6459C12.8311 19.954 18.8246 16.5203 19.2409 11.0401C19.6095 6.11695 15.1381 2.0693 10.0127 2.68327C4.39977 3.35409 1.11761 9.1072 3.61491 13.9166C4.13815 14.9172 4.51869 15.895 4.09058 17.1456L4.10247 17.1343Z" fill="#061E35"/>
<path d="M7.20637 11.8132C6.54042 11.8132 5.96961 11.2675 5.99339 10.6308C6.00529 10.0054 6.55231 9.49377 7.21826 9.49377C7.8842 9.49377 8.43123 10.0054 8.44312 10.6308C8.45501 11.2675 7.8961 11.8132 7.21826 11.8132H7.20637Z" fill="#061E35"/>
<path d="M15.1504 11.8018C14.4963 11.8018 13.9493 11.3016 13.9255 10.6762C13.9136 10.0168 14.425 9.49376 15.1147 9.48239C15.7925 9.48239 16.3277 9.95992 16.3396 10.5966C16.3514 11.2561 15.8282 11.7905 15.1504 11.7905V11.8018Z" fill="#061E35"/>
<path d="M12.3794 10.6308C12.3794 11.2788 11.8324 11.8132 11.1664 11.8132C10.5124 11.8132 9.96533 11.3016 9.96533 10.6762C9.96533 10.0282 10.4529 9.51652 11.1307 9.50515C11.8205 9.48242 12.3794 9.99406 12.3913 10.6421L12.3794 10.6308Z" fill="#061E35"/>
</g>
<defs>
<clipPath id="clip0_112_535">
<rect width="22" height="21" fill="white"/>
</clipPath>
</defs>
</svg>
