<svg width="14" height="12" viewBox="0 0 14 12" fill="none" xmlns="http://www.w3.org/2000/svg">
<g clip-path="url(#clip0_64_1370)">
<path d="M4.74478 7.6506C6.91491 4.17922 9.95301 1.70149 14.0004 0.34694C9.86473 3.38126 6.86625 7.2174 4.77738 11.7189C4.51731 11.3034 4.26956 10.8919 4.0052 10.4895C3.12785 9.15203 2.16078 7.87764 0.953781 6.77529C0.805801 6.64034 0.647983 6.51462 0.49538 6.38376C0.117172 6.06013 0.0493686 5.72591 0.284478 5.29766C0.521966 4.86473 0.905931 4.58147 1.38003 4.39744C1.74974 4.25346 2.05211 4.35913 2.32419 4.61315C3.189 5.41913 3.92382 6.3172 4.53264 7.30535C4.59721 7.41026 4.6612 7.51569 4.7442 7.65111L4.74478 7.6506Z" fill="white"/>
</g>
<defs>
<clipPath id="clip0_64_1370">
<rect width="13" height="11" fill="white" transform="translate(0.293544) scale(1.0547) rotate(1.44993)"/>
</clipPath>
</defs>
</svg>
