<svg width="54" height="23" viewBox="0 0 54 23" fill="none" xmlns="http://www.w3.org/2000/svg">
<g clip-path="url(#clip0_123_865)">
<path d="M44.1848 18.6444H38.1848C34.1378 18.6444 30.8559 15.3625 30.8559 11.3155C30.8559 7.26851 34.1378 3.9866 38.1848 3.9866L44.1848 3.9866C44.9197 3.9866 45.5137 4.58057 45.5137 5.31547V17.3156C45.5137 18.0505 44.9197 18.6444 44.1848 18.6444Z" fill="url(#paint0_linear_123_865)"/>
<path d="M50.6894 0.130634L46.8076 3.59773C46.592 3.79032 46.5718 4.11957 46.7625 4.33313C46.9533 4.54669 47.2827 4.56368 47.4983 4.37109L51.3802 0.903995C51.5958 0.711402 51.616 0.382151 51.4252 0.168593C51.2345 -0.0449643 50.9051 -0.0619588 50.6894 0.130634Z" fill="black"/>
<path d="M52.5469 5.42932L48.0395 8.03168C47.7891 8.17624 47.7022 8.49445 47.8453 8.74243C47.9885 8.99041 48.3075 9.07424 48.5579 8.92968L53.0654 6.32732C53.3157 6.18276 53.4027 5.86455 53.2595 5.61657C53.1163 5.3686 52.7973 5.28476 52.5469 5.42932Z" fill="black"/>
<path d="M53.4765 11.0135H48.2718C47.9827 11.0135 47.7483 11.2456 47.7483 11.532C47.7483 11.8183 47.9827 12.0504 48.2718 12.0504H53.4765C53.7657 12.0504 54 11.8183 54 11.532C54 11.2456 53.7657 11.0135 53.4765 11.0135Z" fill="black"/>
<path d="M53.3999 15.8735L48.4095 14.3952C48.1323 14.3131 47.8417 14.4691 47.7603 14.7437C47.679 15.0182 47.8378 15.3073 48.115 15.3895L53.1054 16.8677C53.3826 16.9498 53.6733 16.7938 53.7546 16.5193C53.8359 16.2447 53.6771 15.9556 53.3999 15.8735Z" fill="black"/>
<path d="M51.2549 21.6187L47.364 18.1617C47.1478 17.9697 46.8185 17.9876 46.6283 18.2016C46.4381 18.4157 46.4591 18.7449 46.6753 18.9369L50.5662 22.3938C50.7823 22.5859 51.1117 22.568 51.3019 22.3539C51.492 22.1399 51.471 21.8107 51.2549 21.6187Z" fill="black"/>
<path d="M9.81519 3.99667H15.8152C19.8622 3.99667 23.1441 7.27857 23.1441 11.3256C23.1441 15.3726 19.8622 18.6545 15.8152 18.6545H9.81519C9.08028 18.6545 8.48632 18.0605 8.48632 17.3256V5.32554C8.48632 4.59064 9.08028 3.99667 9.81519 3.99667Z" fill="url(#paint1_linear_123_865)"/>
<path d="M2.60666 0.910499L6.48848 4.37759C6.70411 4.57018 7.03354 4.55319 7.22428 4.33963C7.41502 4.12607 7.39484 3.79682 7.17921 3.60423L3.29739 0.137138C3.08176 -0.0554548 2.75233 -0.0384602 2.56159 0.175097C2.37085 0.388655 2.39103 0.717906 2.60666 0.910499Z" fill="black"/>
<path d="M0.941882 6.32412L5.44931 8.92648C5.6997 9.07104 6.01873 8.98721 6.1619 8.73923C6.30507 8.49125 6.21816 8.17304 5.96777 8.02848L1.46034 5.42612C1.20996 5.28156 0.890922 5.3654 0.747754 5.61337C0.604585 5.86135 0.691499 6.17956 0.941882 6.32412Z" fill="black"/>
<path d="M0.523454 12.0403H5.72819C6.0173 12.0403 6.25168 11.8082 6.25168 11.5219C6.25168 11.2355 6.0173 11.0034 5.72819 11.0034H0.523454C0.234337 11.0034 -3.93633e-05 11.2355 -3.93633e-05 11.5219C-3.93633e-05 11.8082 0.234337 12.0403 0.523454 12.0403Z" fill="black"/>
<path d="M0.881251 16.8579L5.87165 15.3797C6.14886 15.2976 6.30766 15.0084 6.22634 14.7339C6.14501 14.4593 5.85436 14.3033 5.57715 14.3855L0.58675 15.8637C0.309538 15.9458 0.150741 16.2349 0.232065 16.5095C0.313389 16.784 0.60404 16.94 0.881251 16.8579Z" fill="black"/>
<path d="M3.44119 22.3858L7.33207 18.9289C7.5482 18.7369 7.56924 18.4077 7.37906 18.1936C7.18888 17.9796 6.85949 17.9617 6.64336 18.1538L2.75248 21.6107C2.53634 21.8027 2.5153 22.1319 2.70549 22.346C2.89567 22.56 3.22505 22.5779 3.44119 22.3858Z" fill="black"/>
</g>
<defs>
<linearGradient id="paint0_linear_123_865" x1="38.1848" y1="18.6444" x2="38.1848" y2="3.9866" gradientUnits="userSpaceOnUse">
<stop stop-color="#3668E4"/>
<stop offset="1" stop-color="#6893FE"/>
</linearGradient>
<linearGradient id="paint1_linear_123_865" x1="15.8152" y1="3.99667" x2="15.8152" y2="18.6545" gradientUnits="userSpaceOnUse">
<stop stop-color="#3668E4"/>
<stop offset="1" stop-color="#6893FE"/>
</linearGradient>
<clipPath id="clip0_123_865">
<rect width="53.64" height="22.38" fill="white" transform="scale(1.00672)"/>
</clipPath>
</defs>
</svg>
