<svg width="20" height="24" viewBox="0 0 20 24" fill="none" xmlns="http://www.w3.org/2000/svg">
<path d="M15.9855 7.53003C15.9855 5.80382 15.3549 4.14831 14.2324 2.92769C13.1098 1.70708 11.5874 1.02134 9.99985 1.02134C8.41235 1.02134 6.88987 1.70708 5.76734 2.92769C4.64481 4.14831 4.01418 5.80382 4.01418 7.53003C4.01418 15.1235 1.02134 17.2931 1.02134 17.2931H18.9784C18.9784 17.2931 15.9855 15.1235 15.9855 7.53003Z" stroke="#D3AC2A" stroke-width="2" stroke-linecap="round" stroke-linejoin="round"/>
<path d="M11.7262 21.6322C11.5508 21.961 11.2991 22.2339 10.9962 22.4236C10.6933 22.6133 10.3499 22.7131 10.0004 22.7131C9.65081 22.7131 9.3074 22.6133 9.00451 22.4236C8.70162 22.2339 8.44988 21.961 8.27449 21.6322" stroke="#D3AC2A" stroke-width="2" stroke-linecap="round" stroke-linejoin="round"/>
</svg>
