<svg width="51" height="39" viewBox="0 0 51 39" fill="none" xmlns="http://www.w3.org/2000/svg">
<g clip-path="url(#clip0_112_335)">
<path d="M18.1666 0.193905L1.50934 7.25047C0.257227 7.7809 -0.329043 9.22887 0.19987 10.4846L11.5768 37.495C12.1057 38.7508 13.5495 39.3387 14.8016 38.8083L31.4589 31.7517C32.711 31.2213 33.2973 29.7733 32.7684 28.5176L21.3915 1.50714C20.8625 0.251426 19.4187 -0.336531 18.1666 0.193905Z" fill="#2A5EDD"/>
<path d="M20.6125 32.0913L35.6744 38.4719C37.3671 39.189 39.3189 38.3942 40.0339 36.6966L50.7369 11.2862C51.4519 9.58863 50.6594 7.6312 48.9667 6.91413L33.9048 0.533428C32.2121 -0.183643 30.2603 0.611192 29.5453 2.30874L18.8423 27.7192C18.1273 29.4167 18.9199 31.3742 20.6125 32.0913Z" fill="#2D60DF"/>
<path d="M33.6124 2.7196H15.5983C14.2202 2.7196 13.103 3.84001 13.103 5.2221V34.475C13.103 35.857 14.2202 36.9774 15.5983 36.9774H33.6124C34.9905 36.9774 36.1077 35.857 36.1077 34.475V5.2221C36.1077 3.84001 34.9905 2.7196 33.6124 2.7196Z" fill="#050505"/>
<path d="M31.4934 4.44506H17.7066C16.2404 4.44506 15.0518 5.63709 15.0518 7.10753V15.3006C15.0518 16.7711 16.2404 17.9631 17.7066 17.9631H31.4934C32.9597 17.9631 34.1483 16.7711 34.1483 15.3006V7.10753C34.1483 5.63709 32.9597 4.44506 31.4934 4.44506Z" fill="white"/>
<path d="M33.7495 25.7562H15.4506C15.2303 25.7562 15.0518 25.9353 15.0518 26.1562V26.2933C15.0518 26.5142 15.2303 26.6932 15.4506 26.6932H33.7495C33.9697 26.6932 34.1483 26.5142 34.1483 26.2933V26.1562C34.1483 25.9353 33.9697 25.7562 33.7495 25.7562Z" fill="white"/>
<path d="M33.7495 28.3387H15.4506C15.2303 28.3387 15.0518 28.5178 15.0518 28.7386V28.8758C15.0518 29.0967 15.2303 29.2757 15.4506 29.2757H33.7495C33.9697 29.2757 34.1483 29.0967 34.1483 28.8758V28.7386C34.1483 28.5178 33.9697 28.3387 33.7495 28.3387Z" fill="white"/>
<path d="M33.7495 30.9212H15.4506C15.2303 30.9212 15.0518 31.1002 15.0518 31.3211V31.4582C15.0518 31.6791 15.2303 31.8582 15.4506 31.8582H33.7495C33.9697 31.8582 34.1483 31.6791 34.1483 31.4582V31.3211C34.1483 31.1002 33.9697 30.9212 33.7495 30.9212Z" fill="white"/>
</g>
<defs>
<clipPath id="clip0_112_335">
<rect width="51" height="39" fill="white"/>
</clipPath>
</defs>
</svg>
