<svg width="19" height="29" viewBox="0 0 19 29" fill="none" xmlns="http://www.w3.org/2000/svg">
<path d="M12.3335 4.02943C10.5673 2.47978 8.73593 3.15889 7.79702 3.70583C7.60645 2.65297 6.94178 0.848083 4.58987 0.538152C2.03809 0.205432 -0.0442342 2.64386 0.639029 6.03942C1.13172 8.48241 2.726 10.7203 3.5766 11.7777C3.67885 11.9053 3.77181 12.0147 3.85083 12.1059C3.97168 12.1059 4.12042 12.1059 4.2831 12.0968C5.65892 12.0421 8.42451 11.7731 10.637 10.5517C13.714 8.85615 14.2439 5.71126 12.3289 4.02943H12.3335Z" stroke="white" stroke-linecap="round" stroke-linejoin="round"/>
<path d="M2.41 13.6874C2.41 13.6874 2.2845 13.9153 2.11717 14.3073" stroke="white" stroke-linecap="round" stroke-linejoin="round"/>
<path d="M1.65685 15.5698C0.978231 17.8168 0.57385 21.5542 4.22257 23.8331C13.3885 29.5623 16.4748 16.0484 9.45627 17.2607C4.64554 18.0948 9.70262 30.5376 17.2278 28.1266" stroke="white" stroke-linecap="round" stroke-linejoin="round"/>
<path d="M17.8646 27.885C18.0737 27.7984 18.2829 27.6981 18.4921 27.5842" stroke="white" stroke-linecap="round" stroke-linejoin="round"/>
</svg>
