<svg width="29" height="29" viewBox="0 0 29 29" fill="none" xmlns="http://www.w3.org/2000/svg">
<path d="M24.1665 19.3333C24.1665 20.0007 24.7075 20.5417 25.3748 20.5417C26.0422 20.5417 26.5832 21.0827 26.5832 21.75C26.5832 22.4173 26.0422 22.9583 25.3748 22.9583H3.62484C2.95749 22.9583 2.4165 22.4173 2.4165 21.75C2.4165 21.0827 2.95749 20.5417 3.62484 20.5417C4.29218 20.5417 4.83317 20.0007 4.83317 19.3333V12.0833C4.83317 9.51957 5.85162 7.06082 7.66447 5.24797C9.47732 3.43512 11.9361 2.41667 14.4998 2.41667C17.0636 2.41667 19.5224 3.43512 21.3352 5.24797C23.1481 7.06082 24.1665 9.51957 24.1665 12.0833V19.3333ZM10.8748 26.5833C10.8748 25.916 11.4158 25.375 12.0832 25.375H16.9165C17.5838 25.375 18.1248 25.916 18.1248 26.5833C18.1248 27.2507 17.5838 27.7917 16.9165 27.7917H12.0832C11.4158 27.7917 10.8748 27.2507 10.8748 26.5833Z" fill="#B31212"/>
</svg>
