<svg width="84" height="68" viewBox="0 0 84 68" fill="none" xmlns="http://www.w3.org/2000/svg">
<g clip-path="url(#clip0_10_2882)">
<path d="M57.8 0H8.25858C3.69749 0 0 3.69749 0 8.25858V59.2787C0 63.8398 3.69749 67.5373 8.25858 67.5373H57.8C62.3611 67.5373 66.0586 63.8398 66.0586 59.2787V8.25858C66.0586 3.69749 62.3611 0 57.8 0Z" fill="#174AC9"/>
<mask id="mask0_10_2882" style="mask-type:luminance" maskUnits="userSpaceOnUse" x="1" y="0" width="66" height="68">
<path d="M1.66998 0.181058H66.1392V59.4497C66.1392 63.916 62.5179 67.5373 58.0516 67.5373H1.66998V0.181058Z" fill="white"/>
</mask>
<g mask="url(#mask0_10_2882)">
<path d="M73.1301 40.0154C78.969 40.0154 83.7023 35.282 83.7023 29.4432C83.7023 23.6043 78.969 18.871 73.1301 18.871C67.2913 18.871 62.5579 23.6043 62.5579 29.4432C62.5579 35.282 67.2913 40.0154 73.1301 40.0154Z" fill="#D3AC2A"/>
<path opacity="0.4" d="M35.841 28.3165H30.6102V67.9899H35.841V28.3165Z" fill="#D3AC2A"/>
<path opacity="0.4" d="M41.9163 28.3266H36.9571V67.9597H41.9163V28.3266Z" fill="#D3AC2A"/>
<path opacity="0.4" d="M48.1736 28.3266H42.9529V67.8893H48.1736V28.3266Z" fill="#D3AC2A"/>
<path opacity="0.4" d="M54.4802 28.3266H49.2595V67.9296H54.4802V28.3266Z" fill="#D3AC2A"/>
<path opacity="0.4" d="M60.7873 28.3266H55.5666V67.9597H60.7873V28.3266Z" fill="#D3AC2A"/>
<path opacity="0.4" d="M67.1652 28.3266H61.9445V68H67.1652V28.3266Z" fill="#D3AC2A"/>
<path opacity="0.4" d="M66.0987 22.8645H29.5739V28.3266H66.0987V22.8645Z" fill="#D3AC2A"/>
<path d="M14.8978 13.8012H73.2813V18.9414H13.2783V15.4207C13.2783 14.5254 14.0026 13.8012 14.8978 13.8012Z" fill="#F1CF5B"/>
<path d="M21.8485 40.0154C27.6873 40.0154 32.4207 35.282 32.4207 29.4432C32.4207 23.6043 27.6873 18.871 21.8485 18.871C16.0096 18.871 11.2763 23.6043 11.2763 29.4432C11.2763 35.282 16.0096 40.0154 21.8485 40.0154Z" fill="#F1CF5B"/>
</g>
</g>
<defs>
<clipPath id="clip0_10_2882">
<rect width="83.21" height="67.6" fill="white" transform="scale(1.00592)"/>
</clipPath>
</defs>
</svg>
