<svg width="27" height="25" viewBox="0 0 27 25" fill="none" xmlns="http://www.w3.org/2000/svg">
<g clip-path="url(#clip0_489_469)">
<path d="M26.9903 18.5913C26.9903 20.0699 26.9999 21.5485 26.9874 23.0281C26.9769 24.2503 26.2094 24.9863 24.9762 24.9872C22.6316 24.9882 20.286 24.9882 17.9414 24.9872C16.7322 24.9872 15.9609 24.2285 15.959 23.0348C15.9561 21.2494 15.9628 19.464 15.9532 17.6787C15.9484 16.8193 15.5987 16.1156 14.8724 15.635C14.0695 15.1042 13.21 15.0519 12.3563 15.4973C11.5026 15.9427 11.0599 16.6825 11.0484 17.6331C11.0273 19.4071 11.0053 21.1829 11.0522 22.9569C11.0839 24.1667 10.166 25.0214 8.97592 24.9996C6.65334 24.9559 4.32884 24.9872 2.0053 24.9872C0.79131 24.9872 0.0132838 24.2465 0.00849297 23.0452C-0.00300495 20.0557 -0.00013047 17.0662 0.00178585 14.0767C0.00178585 13.1669 0.347682 12.4005 0.997314 11.7538C4.72743 8.04159 8.4518 4.32274 12.1781 0.606734C12.982 -0.194775 13.99 -0.20712 14.7996 0.599137C18.1838 3.96757 21.5623 7.34169 24.9427 10.713C25.2733 11.0425 25.5933 11.3834 25.9363 11.6997C26.6846 12.392 27.0075 13.2457 26.9999 14.2495C26.9884 15.6968 26.997 17.144 26.997 18.5904C26.9951 18.5904 26.9932 18.5904 26.9912 18.5904L26.9903 18.5913Z" fill="#061E35"/>
</g>
<defs>
<clipPath id="clip0_489_469">
<rect width="27" height="25" fill="white"/>
</clipPath>
</defs>
</svg>
