<svg width="34" height="29" viewBox="0 0 34 29" fill="none" xmlns="http://www.w3.org/2000/svg">
<path d="M9.15398 14.3848C9.15398 14.038 9.29176 13.7054 9.537 13.4601C9.78224 13.2149 10.1149 13.0771 10.4617 13.0771H22.2311V4.57699C22.2311 1.96157 19.4694 0 17.0002 0H4.57699C3.3635 0.00129809 2.20007 0.483932 1.342 1.342C0.483932 2.20007 0.00129809 3.3635 0 4.57699V24.1927C0.00129809 25.4062 0.483932 26.5696 1.342 27.4276C2.20007 28.2857 3.3635 28.7684 4.57699 28.7697H17.6541C18.8676 28.7684 20.031 28.2857 20.8891 27.4276C21.7472 26.5696 22.2298 25.4062 22.2311 24.1927V15.6925H10.4617C10.1149 15.6925 9.78224 15.5548 9.537 15.3095C9.29176 15.0643 9.15398 14.7317 9.15398 14.3848ZM33.6172 13.4604L27.0786 6.92188C26.8314 6.68699 26.5022 6.55797 26.1612 6.56234C25.8202 6.5667 25.4944 6.70411 25.2532 6.94525C25.0121 7.1864 24.8747 7.5122 24.8703 7.8532C24.8659 8.1942 24.9949 8.52342 25.2298 8.77066L29.5355 13.0771H22.2311V15.6925H29.5355L25.2298 19.999C25.1033 20.1192 25.0021 20.2636 24.9322 20.4235C24.8623 20.5835 24.8252 20.7558 24.823 20.9303C24.8207 21.1048 24.8534 21.2781 24.9192 21.4398C24.985 21.6014 25.0824 21.7483 25.2059 21.8718C25.3293 21.9952 25.4762 22.0926 25.6379 22.1584C25.7995 22.2242 25.9728 22.2569 26.1473 22.2547C26.3218 22.2524 26.4942 22.2153 26.6541 22.1454C26.8141 22.0755 26.9584 21.9743 27.0786 21.8478L33.6172 15.3092C33.8622 15.064 33.9999 14.7315 33.9999 14.3848C33.9999 14.0381 33.8622 13.7057 33.6172 13.4604Z" fill="#B31212"/>
</svg>
