<svg width="33" height="29" viewBox="0 0 33 29" fill="none" xmlns="http://www.w3.org/2000/svg">
<g clip-path="url(#clip0_26_68)">
<rect width="33" height="29" fill="#061E35"/>
<path d="M6.15415 23.6616C6.77847 21.9345 6.20766 20.5999 5.44063 19.2025C1.67685 12.5766 6.60009 4.63184 15.0017 3.70548C22.7077 2.85761 29.3968 8.43152 28.8439 15.2458C28.2374 22.8138 19.2293 27.5555 11.3985 24.3682C9.73955 23.693 8.16982 23.065 6.13631 23.6616H6.15415ZM10.8098 16.2978C11.8087 16.2978 12.665 15.5441 12.6471 14.6649C12.6293 13.8013 11.8087 13.0948 10.8098 13.0948C9.8109 13.0948 9.0082 13.7856 8.97252 14.6649C8.95469 15.5441 9.79307 16.2978 10.792 16.2978H10.8098ZM22.7255 16.2978C23.7423 16.2978 24.545 15.5441 24.5093 14.6492C24.4914 13.7699 23.6887 13.0948 22.672 13.1105C21.6374 13.1105 20.8525 13.8327 20.8882 14.7591C20.906 15.6226 21.7444 16.3292 22.7255 16.3135V16.2978ZM18.5693 14.6649C18.5693 13.7699 17.7131 13.0791 16.6785 13.0948C15.6796 13.1262 14.9125 13.817 14.9304 14.712C14.9304 15.5912 15.7509 16.2978 16.732 16.2821C17.7487 16.2821 18.5693 15.5441 18.5514 14.6492L18.5693 14.6649Z" fill="#FCA311"/>
<path d="M15.6078 0C25.9715 0 33.4991 7.00271 32.9818 15.2772C32.4824 23.2848 24.598 29.471 15.5364 28.9686C13.1997 28.843 10.9699 28.3249 8.91857 27.32C8.34776 27.0374 7.81263 27.006 7.20614 27.1002C6.15371 27.2729 5.10128 27.4299 4.03101 27.5398C2.58614 27.6968 1.53371 26.739 1.72993 25.4672C1.89047 24.4781 2.06885 23.4889 2.30074 22.5154C2.40776 22.0758 2.30074 21.7147 2.06885 21.3378C-0.678182 16.6118 -0.69602 11.8701 2.31857 7.28533C5.40452 2.51218 10.3099 0.188414 15.6078 0ZM6.15371 23.6616C8.18722 23.0493 9.77479 23.693 11.4159 24.3682C19.2467 27.5555 28.237 22.8138 28.8613 15.2458C29.4142 8.44721 22.7072 2.85761 15.0191 3.70547C6.59966 4.63184 1.67641 12.5766 5.42236 19.2182C6.20722 20.5999 6.77803 21.9502 6.13587 23.6773L6.15371 23.6616Z" fill="#061E35"/>
<path d="M10.8093 16.3135C9.81039 16.3135 8.95417 15.5598 8.98985 14.6806C9.00768 13.817 9.82822 13.1104 10.8271 13.1104C11.8261 13.1104 12.6466 13.817 12.6644 14.6806C12.6823 15.5598 11.8439 16.3135 10.8271 16.3135H10.8093Z" fill="#061E35"/>
<path d="M22.7253 16.2978C21.7442 16.2978 20.9237 15.6069 20.888 14.7433C20.8702 13.8327 21.6372 13.1104 22.6718 13.0947C23.6885 13.0947 24.4912 13.7542 24.5091 14.6334C24.5269 15.5441 23.7421 16.2821 22.7253 16.2821V16.2978Z" fill="#061E35"/>
<path d="M18.5688 14.6806C18.5688 15.5755 17.7483 16.3135 16.7494 16.3135C15.7683 16.3135 14.9478 15.6069 14.9478 14.7434C14.9478 13.8484 15.6791 13.1419 16.6959 13.1262C17.7305 13.0948 18.5688 13.8013 18.5867 14.6963L18.5688 14.6806Z" fill="#061E35"/>
</g>
<defs>
<clipPath id="clip0_26_68">
<rect width="33" height="29" fill="white"/>
</clipPath>
</defs>
</svg>
