<svg width="13" height="11" viewBox="0 0 13 11" fill="none" xmlns="http://www.w3.org/2000/svg">
<path d="M4.40252 7.14471C6.37613 3.80235 9.19627 1.38099 13 0C9.1529 2.97525 6.4029 6.68321 4.53102 11C4.27455 10.6124 4.02986 10.2283 3.76963 9.85325C2.90598 8.60661 1.95879 7.4219 0.788331 6.40601C0.644834 6.28165 0.492235 6.16627 0.344455 6.0459C-0.0217827 5.74823 -0.0940664 5.43307 0.118501 5.02152C0.333211 4.60548 0.690346 4.32778 1.13529 4.14198C1.48225 3.99664 1.77139 4.08954 2.03536 4.32378C2.87439 5.06697 3.5924 5.90056 4.19316 6.82256C4.25688 6.92045 4.32006 7.01884 4.40198 7.1452L4.40252 7.14471Z" fill="white"/>
</svg>
