<svg width="145" height="134" viewBox="0 0 145 134" fill="none" xmlns="http://www.w3.org/2000/svg">
<path d="M33.7665 120.789C33.7665 120.789 28.647 124.207 26.5863 123.981C26.3287 123.954 26.131 123.877 25.9792 123.728C24.6315 122.364 23.5551 119.976 23.5551 119.976C23.5551 119.976 24.1945 119.104 26.1724 121.416L27.4281 120.283L24.8338 117.723C24.8338 117.723 26.2919 116.585 28.7712 118.034C28.6884 117.858 27.0877 114.444 28.2928 109.793L22.2488 104.076L27.5983 99.5022L28.0122 99.15C28.0122 99.15 28.348 99.4751 28.8954 99.9809C29.4243 100.473 30.1465 101.128 30.9376 101.805C32.8235 103.431 35.105 105.196 36.0939 105.178C37.9246 105.142 33.7665 120.784 33.7665 120.784V120.789Z" fill="white"/>
<mask id="mask0_41_3524" style="mask-type:luminance" maskUnits="userSpaceOnUse" x="22" y="99" width="15" height="25">
<path d="M33.7665 120.789C33.7665 120.789 28.647 124.207 26.5863 123.981C26.3287 123.954 26.131 123.877 25.9792 123.728C24.6315 122.364 23.5551 119.976 23.5551 119.976C23.5551 119.976 24.1945 119.104 26.1724 121.416L27.4281 120.283L24.8338 117.723C24.8338 117.723 26.2919 116.585 28.7712 118.034C28.6884 117.858 27.0877 114.444 28.2928 109.793L22.2488 104.076L27.5983 99.5022L28.0122 99.15C28.0122 99.15 28.348 99.4751 28.8954 99.9809C29.4243 100.473 30.1465 101.128 30.9376 101.805C32.8235 103.431 35.105 105.196 36.0939 105.178C37.9246 105.142 33.7665 120.784 33.7665 120.784V120.789Z" fill="white"/>
</mask>
<g mask="url(#mask0_41_3524)">
<path opacity="0.4" d="M29.8107 118.549C29.8107 118.549 26.8945 121.502 26.5863 123.981C26.3287 123.954 26.131 123.877 25.9792 123.728C24.6315 122.364 23.5551 119.976 23.5551 119.976C23.5551 119.976 24.1945 119.104 26.1724 121.416L27.4281 120.283L24.8338 117.722C24.8338 117.722 26.2919 116.585 28.7712 118.034C28.6884 117.858 27.0877 114.444 28.2928 109.793L22.2488 104.076L27.5983 99.5022L28.8908 99.9809C29.4197 100.473 30.1419 101.128 30.933 101.805C29.8015 103.435 27.3775 106.804 27.3775 106.804L29.4703 109.594C29.4703 109.594 28.2008 116.63 29.8061 118.544L29.8107 118.549Z" fill="#92E3A9"/>
</g>
<path d="M33.7665 120.789C33.7665 120.789 28.647 124.207 26.5863 123.981C26.3287 123.954 26.131 123.877 25.9792 123.728C24.6315 122.364 23.5551 119.976 23.5551 119.976C23.5551 119.976 24.1945 119.104 26.1724 121.416L27.4281 120.283L24.8338 117.723C24.8338 117.723 26.2919 116.585 28.7712 118.034C28.6884 117.858 27.0877 114.444 28.2928 109.793L22.2488 104.076L27.5983 99.5022L28.0122 99.15C28.0122 99.15 28.348 99.4751 28.8954 99.9809C29.4243 100.473 30.1465 101.128 30.9376 101.805C32.8235 103.431 35.105 105.196 36.0939 105.178C37.9246 105.142 33.7665 120.784 33.7665 120.784V120.789Z" stroke="#263238" stroke-linecap="round" stroke-linejoin="round"/>
<path d="M27.4283 120.287C27.4283 120.287 27.8745 118.915 28.776 118.043" stroke="#263238" stroke-linecap="round" stroke-linejoin="round"/>
<path d="M122.959 81.9177C122.233 83.0014 121.244 84.0219 120.062 84.9837C120.062 84.9837 120.062 84.9837 120.057 84.9837C110.641 92.6376 88.9353 96.4171 88.9353 96.4171C88.9353 96.4171 88.2086 97.4873 87.0908 99.0091C85.0854 101.746 81.7966 105.945 79.115 108.049C77.9834 108.943 76.9577 109.458 76.1849 109.318L80.2557 124.084L82.0772 130.496C82.0772 130.496 63.361 138.511 31.3425 129.345C31.3425 129.345 30.9791 125.244 31.2505 124.368C31.2643 124.328 31.2781 124.283 31.2919 124.242C31.5908 123.538 32.5476 122.693 32.5476 122.693C32.5476 122.693 32.3682 120.056 32.2762 117.369C32.2026 115.283 32.1842 113.17 32.3406 112.231C32.566 110.876 33.5779 107.602 34.0839 105.995C34.2633 105.426 34.3829 105.064 34.3829 105.064L32.7914 90.416L32.3314 86.1984C32.3314 86.1984 32.3222 86.1217 32.3084 85.9772C32.3084 85.9456 32.3084 85.914 32.2992 85.8733L32.0462 83.611L23.8128 86.081C23.8128 86.081 24.2497 87.0248 24.8385 88.3569C25.9194 90.7862 27.5109 94.489 27.8651 95.952C27.8927 96.074 27.9295 96.1869 27.9709 96.3043C28.7344 98.4401 31.6368 100.377 31.6368 100.377L23.8404 109.323L21.5359 107.742C21.5359 107.742 21.2001 108 20.6068 108.316C19.0889 109.124 15.9105 110.312 12.4377 108.496C11.1682 107.832 9.86186 106.771 8.58314 105.15C2.43794 97.3383 -0.202289 90.9759 0.662455 83.4891C1.5272 75.9978 35.7812 52.9639 42.5749 53.2032L52.6851 55.3978C52.9013 55.2217 53.4946 54.7611 53.95 54.7837C55.7899 54.874 55.8359 56.9737 55.8359 56.9737L78.4894 60.5862C78.4894 60.5862 80.8353 59.4302 81.2446 59.4528C82.2474 59.5024 82.6751 60.3468 82.6751 60.3468C82.6751 60.3468 88.5443 56.897 90.4348 57.7007C96.6398 60.3288 127.545 75.0721 122.959 81.9132V81.9177Z" fill="#A22525"/>
<path opacity="0.2" d="M44.2587 117.524C44.2587 117.524 40.7399 121.764 34.4521 122.744C33.2608 122.929 32.2121 123.119 31.2967 123.304C31.5957 122.599 32.5524 121.755 32.5524 121.755C32.5524 121.755 32.373 119.118 32.2811 116.431C34.9397 118.138 39.5716 120.125 44.2587 117.524Z" fill="black"/>
<path opacity="0.2" d="M34.0931 105.061C34.2725 104.492 34.3921 104.131 34.3921 104.131L32.8006 89.4822C35.1833 92.8328 43.6743 104.257 49.5297 105.49C55.6473 106.777 39.2862 109.048 34.0977 105.061H34.0931Z" fill="black"/>
<path opacity="0.2" d="M80.2559 123.15C73.8623 122.437 64.8193 120.856 63.9131 117.569C62.5056 112.439 69.3592 109.36 79.1106 107.111C77.979 108.005 76.9533 108.52 76.1805 108.38L80.2513 123.146L80.2559 123.15Z" fill="black"/>
<path opacity="0.2" d="M120.062 84.041C110.646 91.6949 88.94 95.4744 88.94 95.4744C88.94 95.4744 88.2133 96.5446 87.0955 98.0663C85.2603 93.8578 82.6154 85.1518 85.711 74.4499C85.711 74.4499 87.3853 83.3411 94.3263 85.4544C94.3263 85.4544 89.0136 81.571 90.8673 72.2147C90.8673 72.2147 92.6796 83.2237 104.478 86.2626C110.218 87.7392 115.821 86.1046 120.066 84.0365L120.062 84.041Z" fill="black"/>
<path opacity="0.2" d="M32.3131 85.0434L32.0509 82.6772L23.8175 85.1473C23.8175 85.1473 24.2544 86.091 24.8432 87.4231C21.6924 87.1025 15.722 89.9744 14.6779 86.8496C13.4221 83.0746 21.1542 84.3751 21.1542 84.3751L28.4494 80.2072C27.0695 74.4138 30.579 70.0608 30.579 70.0608L31.246 74.1022C31.568 66.4212 34.6268 62.2172 34.6268 62.2172C32.0831 68.2907 32.1521 83.2417 32.3131 85.0434Z" fill="black"/>
<path opacity="0.2" d="M31.6415 99.439L23.845 108.384L21.5405 106.804C21.5405 106.804 21.2048 107.061 20.6114 107.377C19.0935 108.186 15.9151 109.373 12.4423 107.558C14.9676 104.126 20.1882 99.0732 26.3978 97.1225C26.3978 97.1225 23.8404 100.794 22.2535 104.072L23.8542 105.621C23.8542 105.621 27.8513 101.146 31.6415 99.4345V99.439Z" fill="black"/>
<path opacity="0.2" d="M50.5783 60.0362C50.5783 60.8219 50.0723 69.7763 56.7051 72.1424C63.3379 74.5086 69.2347 70.4943 69.2347 70.4943C69.2347 70.4943 59.0601 80.126 52.8735 74.9782C46.6869 69.8305 50.5783 60.0362 50.5783 60.0362Z" fill="black"/>
<path d="M31.3471 128.406C31.3471 128.406 30.9883 124.306 31.2551 123.43C31.4805 122.699 32.5522 121.755 32.5522 121.755C32.5522 121.755 31.991 113.442 32.3498 111.297C32.658 109.459 34.3921 104.126 34.3921 104.126L32.0554 82.6772L23.8219 85.1473C23.8219 85.1473 27.3269 92.7515 27.8697 95.0183C28.4125 97.2851 31.6414 99.448 31.6414 99.448L23.8403 108.393L21.5359 106.817C21.5359 106.817 14.7329 112.042 8.58314 104.225C2.43794 96.4091 -0.202289 90.0511 0.662455 82.5598C1.5272 75.0685 35.7812 52.0346 42.5795 52.274L52.6897 54.4685C52.9105 54.2924 53.4992 53.8318 53.9546 53.8544C55.7945 53.9447 55.8405 56.0445 55.8405 56.0445L78.494 59.6524C78.494 59.6524 80.8444 58.5009 81.2538 58.519C82.2565 58.5687 82.6843 59.4086 82.6843 59.4086C82.6843 59.4086 88.5535 55.9587 90.444 56.7624C96.649 59.3905 127.55 74.1338 122.964 80.9749C116.455 90.6878 88.9399 95.4789 88.9399 95.4789C88.9399 95.4789 79.7865 109.03 76.1849 108.384L82.0818 129.567" stroke="#263238" stroke-linecap="round" stroke-linejoin="round"/>
<path d="M99.0225 82.4515C109.418 89.1932 117.798 87.9469 124.358 79.2725C124.358 79.2725 129.817 72.3637 129.431 64.904C129.045 57.4443 127.232 33.128 103.562 39.3459C99.6664 40.371 90.5774 52.3236 89.8093 55.6065C89.4597 57.1056 85.8075 64.7505 82.2657 72.6572" fill="#37A054"/>
<path d="M99.0225 82.4515C109.418 89.1932 117.798 87.9469 124.358 79.2725C124.358 79.2725 129.817 72.3637 129.431 64.904C129.045 57.4443 127.232 33.128 103.562 39.3459C99.6664 40.371 90.5774 52.3237 89.8093 55.6065C89.4597 57.1056 85.8075 64.7505 82.2657 72.6572" stroke="#263238" stroke-linecap="round" stroke-linejoin="round"/>
<path d="M70.8953 11.0289C70.8953 11.0289 77.5142 10.0445 82.1185 14.0859C87.9372 19.1975 94.4687 32.979 85.1635 55.8187C85.1635 55.8187 71.4242 46.8598 47.9704 52.852C47.9704 52.852 49.9896 47.492 46.4433 30.6309C44.8426 23.0041 48.8719 5.42505 70.8953 11.0289Z" fill="#263238"/>
<path d="M60.8544 68.3449C70.6564 69.9027 81.0747 59.2505 81.0747 59.2505C81.0747 59.2505 75.7437 58.6048 75.2699 56.1483C73.7428 48.3996 79.8926 38.8266 79.8926 38.8266C79.8926 38.8266 56.0937 39.4724 60.2519 44.7601C61.1258 45.8709 61.7238 46.9321 62.1332 47.93C63.5775 51.4115 62.5747 54.0351 61.8066 54.6763C61.7514 54.7214 61.687 54.7621 61.6318 54.7892C60.1921 55.4349 54.2769 54.4731 54.2769 54.4731C54.2769 54.4731 51.9126 66.9179 60.8544 68.3403V68.3449Z" fill="white" stroke="#263238" stroke-linecap="round" stroke-linejoin="round"/>
<path d="M77.6983 62.1992C77.6983 62.1992 73.1768 63.9738 66.5578 63.4455L63.5772 64.8814" stroke="#263238" stroke-linecap="round" stroke-linejoin="round"/>
<path d="M60.6059 64.6466L60.3851 62.723C60.3851 62.723 55.5048 61.2238 53.9915 58.37" stroke="#263238" stroke-linecap="round" stroke-linejoin="round"/>
<path d="M61.8064 54.6808C69.0969 56.5502 72.5191 47.3746 72.5191 47.3746C72.5191 47.3746 66.6867 45.6677 62.133 47.9345C63.5773 51.416 62.5745 54.0396 61.8064 54.6808Z" fill="#263238"/>
<path d="M80.3064 33.9995C82.0819 24.2278 80.1086 12.5009 64.9618 13.4718C54.1387 14.1672 54.2261 25.8173 54.9436 29.2943C56.1487 35.1419 54.4239 37.4449 56.2775 42.3578C57.6115 45.889 60.7116 49.8356 64.3592 51.3167C66.6039 52.2288 75.6883 45.9702 76.3598 43.1074" fill="white"/>
<path d="M80.3064 33.9995C82.0819 24.2278 80.1086 12.5009 64.9618 13.4718C54.1387 14.1672 54.2261 25.8173 54.9436 29.2943C56.1487 35.1419 54.4239 37.4449 56.2775 42.3578C57.6114 45.889 60.7116 49.8356 64.3592 51.3167C66.6039 52.2288 75.6883 45.9702 76.3598 43.1074" stroke="#263238" stroke-linecap="round" stroke-linejoin="round"/>
<path d="M61.2729 31.1186C61.1809 32.2159 61.0521 34.9342 58.6833 36.9391C57.1516 38.2351 60.6657 39.5627 60.6657 39.5627" stroke="#263238" stroke-linecap="round" stroke-linejoin="round"/>
<path d="M58.7564 27.2442C58.7564 27.2442 55.4124 25.6457 53.154 28.2828" stroke="#263238" stroke-linecap="round" stroke-linejoin="round"/>
<path d="M64.3638 27.0365C64.3638 27.0365 67.5927 25.8986 71.5117 27.3119" stroke="#263238" stroke-linecap="round" stroke-linejoin="round"/>
<path d="M67.8366 31.6514C67.9424 32.5952 68.5864 33.2996 69.2809 33.2228C69.9755 33.1506 70.4539 32.3242 70.3481 31.3805C70.2423 30.4367 69.5983 29.7323 68.9038 29.8091C68.2092 29.8813 67.7308 30.7077 67.8366 31.6514Z" fill="#263238"/>
<path d="M60.831 42.6513C65.0351 42.1501 68.3055 39.9691 68.3055 39.9691C68.3055 39.9691 68.6182 44.0692 65.1225 44.9226C62.4408 45.5774 61.4013 42.57 61.4013 42.57" stroke="#263238" stroke-linecap="round" stroke-linejoin="round"/>
<path d="M70.6653 17.1971C70.6653 17.1971 69.7085 28.775 80.1177 32.9835L84.9933 21.8527L77.6154 13.8285L66.4979 10.6766C49.8884 11.6926 42.7359 21.8256 51.9583 48.8241C51.9583 48.8241 49.3779 16.6733 70.6653 17.2016V17.1971Z" fill="#263238"/>
<path d="M77.8409 33.4757C77.6983 32.1752 81.0515 28.8608 82.183 30.9876C84.1149 34.6136 82.7074 37.7745 80.7065 39.0118C79.8096 39.5672 78.6735 40.6058 77.8777 39.6259" fill="white"/>
<path d="M77.8409 33.4757C77.6983 32.1752 81.0515 28.8608 82.183 30.9876C84.1149 34.6136 82.7074 37.7745 80.7065 39.0118C79.8096 39.5672 78.6735 40.6058 77.8777 39.6259" stroke="#263238" stroke-linecap="round" stroke-linejoin="round"/>
<path d="M57.6985 32.0804C57.8043 33.0241 58.4482 33.7286 59.1428 33.6518C59.8373 33.5795 60.3157 32.7532 60.2099 31.8094C60.1041 30.8657 59.4602 30.1613 58.7656 30.238C58.071 30.3103 57.5927 31.1366 57.6985 32.0804Z" fill="#263238"/>
<g opacity="0.2">
<path d="M50.4862 30.1793C50.362 30.9651 50.2746 31.7553 50.2286 32.55" stroke="white" stroke-linecap="round" stroke-linejoin="round"/>
<path d="M68.9401 15.0929C60.5273 14.8761 52.7078 20.1413 50.8449 28.4093" stroke="white" stroke-linecap="round" stroke-linejoin="round"/>
<path d="M67.4363 12.7312C67.4363 12.7312 55.3022 9.93157 50.7531 17.8293" stroke="white" stroke-linecap="round" stroke-linejoin="round"/>
<path d="M77.2796 26.4992C78.0201 27.5106 78.8849 28.4454 79.8968 29.2085" stroke="white" stroke-linecap="round" stroke-linejoin="round"/>
<path d="M72.4681 14.2755C73.1167 18.0009 74.3678 21.7804 76.3181 25.0406" stroke="white" stroke-linecap="round" stroke-linejoin="round"/>
<path d="M84.6619 50.111C84.4457 51.0593 84.1927 51.9985 83.9075 52.9288" stroke="white" stroke-linecap="round" stroke-linejoin="round"/>
<path d="M83.9581 34.3698C85.9267 38.6595 85.7933 43.9969 84.9838 48.5125" stroke="white" stroke-linecap="round" stroke-linejoin="round"/>
<path d="M82.5138 41.843C82.5138 41.843 83.1164 46.6295 79.0916 50.6709" stroke="white" stroke-linecap="round" stroke-linejoin="round"/>
<path d="M76.916 15.6573C78.9813 18.3983 80.513 21.3379 82.9048 23.8395C85.4255 26.4766 87.9415 29.493 88.4153 33.2048" stroke="white" stroke-linecap="round" stroke-linejoin="round"/>
<path d="M74.0093 12.808C74.6027 13.1873 75.1408 13.6389 75.6284 14.1401" stroke="white" stroke-linecap="round" stroke-linejoin="round"/>
</g>
<path d="M115.522 76.3916C115.282 76.4458 115.039 76.4864 114.79 76.518C108.277 77.4302 100.973 72.1334 98.5074 65.762C96.5617 60.7361 98.2636 55.033 99.1927 52.5901C99.4871 51.8269 99.6987 51.3799 99.6987 51.3799C103.627 45.8709 126.464 56.645 126.727 62.583C126.993 68.5164 122.21 74.9466 115.517 76.3871L115.522 76.3916Z" fill="#263238" stroke="#263238" stroke-linecap="round" stroke-linejoin="round"/>
<path d="M122.665 63.3913C122.665 63.3913 121.368 72.8243 114.79 76.518C108.277 77.4302 100.973 72.1334 98.5074 65.762C96.5617 60.7362 98.2636 55.033 99.1927 52.5901C99.1927 52.5856 99.1973 52.5901 99.1973 52.5901C106.893 48.2777 122.665 63.3913 122.665 63.3913Z" fill="white"/>
<mask id="mask1_41_3524" style="mask-type:luminance" maskUnits="userSpaceOnUse" x="97" y="51" width="26" height="26">
<path d="M122.665 63.3913C122.665 63.3913 121.368 72.8243 114.79 76.518C108.277 77.4302 100.973 72.1334 98.5074 65.762C96.5617 60.7362 98.2636 55.033 99.1927 52.5901C99.1927 52.5856 99.1973 52.5901 99.1973 52.5901C106.893 48.2777 122.665 63.3913 122.665 63.3913Z" fill="white"/>
</mask>
<g mask="url(#mask1_41_3524)">
<path opacity="0.4" d="M122.665 63.3913C122.665 63.3913 121.368 72.8243 114.79 76.518C108.277 77.4302 100.973 72.1334 98.5074 65.762C96.5617 60.7362 98.2636 55.033 99.1927 52.5901C99.1927 52.5856 99.1973 52.5901 99.1973 52.5901C106.893 48.2777 122.665 63.3913 122.665 63.3913Z" fill="#37A054"/>
</g>
<path d="M122.665 63.3913C122.665 63.3913 121.368 72.8243 114.79 76.518C108.277 77.4302 100.973 72.1334 98.5074 65.762C96.5617 60.7362 98.2636 55.033 99.1927 52.5901C99.1927 52.5856 99.1973 52.5901 99.1973 52.5901C106.893 48.2777 122.665 63.3913 122.665 63.3913Z" stroke="#263238" stroke-linecap="round" stroke-linejoin="round"/>
<path d="M95.7385 68.3584C95.7385 68.3584 103.153 78.8074 111.814 79.6789C120.471 80.5504 126.009 73.3887 126.373 67.9881" stroke="#263238" stroke-linecap="round" stroke-linejoin="round"/>
<path d="M91.5662 21.1934C92.2194 19.4007 96.8973 20.0013 98.3784 25.587C99.8595 31.1728 105.715 44.733 105.715 44.733C105.715 44.733 128.957 11.1553 133.125 9.86384C137.292 8.56787 135.641 14.3884 130.075 22.4623C130.075 22.4623 135.291 21.5591 136.657 22.4623C138.028 23.3654 137.361 28.7886 138.088 30.6896C139.311 33.8731 136.593 34.5459 136.593 34.5459C136.593 34.5459 138.732 34.5278 140.222 35.9006C141.717 37.2733 140.967 42.9539 141.39 44.5614C141.818 46.1689 138.966 47.5236 138.966 47.5236C138.966 47.5236 145.82 51.1948 144.27 52.1114C141.662 53.6603 140.171 52.0753 140.171 52.0753C140.171 52.0753 129.643 65.0575 121.703 67.9475C113.764 70.8374 98.3002 59.3499 96.6397 53.0913C94.9792 46.8327 96.9617 47.2211 95.7014 36.8037C94.441 26.3908 91.557 21.1889 91.557 21.1889L91.5662 21.1934Z" fill="white" stroke="#263238" stroke-linecap="round" stroke-linejoin="round"/>
<path d="M125.475 0.566301L94.8526 8.4026C93.7661 8.68064 93.1149 9.77073 93.3981 10.8374L107.874 65.3563C108.157 66.4229 109.268 67.0622 110.354 66.7842L140.977 58.9479C142.064 58.6698 142.715 57.5797 142.431 56.5131L127.955 1.99421C127.672 0.927557 126.562 0.288262 125.475 0.566301Z" fill="white" stroke="#263238" stroke-linecap="round" stroke-linejoin="round"/>
<path d="M107.932 6.82938C108.001 7.09128 107.84 7.3577 107.578 7.42543C107.311 7.49316 107.04 7.33512 106.971 7.07773C106.902 6.81583 107.063 6.54941 107.325 6.48168C107.592 6.41394 107.863 6.57199 107.932 6.82938Z" fill="#92E3A9" stroke="#263238" stroke-linecap="round" stroke-linejoin="round"/>
<path d="M114.239 5.2128C114.28 5.37536 114.183 5.54244 114.013 5.5876C113.848 5.62824 113.677 5.53341 113.631 5.36633C113.59 5.20377 113.687 5.0367 113.857 4.99154C114.022 4.9509 114.193 5.04573 114.239 5.2128Z" fill="#92E3A9" stroke="#263238" stroke-linecap="round" stroke-linejoin="round"/>
<path d="M112.505 5.47533L108.833 6.415C108.754 6.43513 108.707 6.51405 108.728 6.59127L108.743 6.64807C108.763 6.7253 108.844 6.77158 108.922 6.75145L112.594 5.81178C112.673 5.79165 112.72 5.71273 112.7 5.63551L112.685 5.5787C112.664 5.50148 112.584 5.4552 112.505 5.47533Z" fill="#92E3A9" stroke="#263238" stroke-linecap="round" stroke-linejoin="round"/>
<path d="M127.035 2.55315L141.391 56.6225C141.556 57.2546 141.174 57.9004 140.531 58.0629L110.301 65.7981C109.657 65.9606 109 65.5858 108.834 64.9537L94.4783 10.8844C94.3127 10.2522 94.6945 9.60645 95.3385 9.44389L101.543 7.85441C101.953 7.75056 102.385 7.90409 102.624 8.24275L103.071 8.87042C103.314 9.20908 103.747 9.36713 104.151 9.25875L117.776 5.77274C118.185 5.66888 118.484 5.3257 118.526 4.91478L118.604 4.15166C118.645 3.74074 118.944 3.39756 119.353 3.2937L125.558 1.70422C126.202 1.54166 126.86 1.91645 127.026 2.54863L127.035 2.55315Z" fill="#37A054" stroke="#263238" stroke-linecap="round" stroke-linejoin="round"/>
<path d="M128.088 32.8997C130.896 26.5495 127.929 19.1664 121.461 16.4092C114.992 13.652 107.471 16.5647 104.663 22.915C101.854 29.2652 104.821 36.6483 111.29 39.4055C117.758 42.1627 125.279 39.25 128.088 32.8997Z" fill="white" stroke="#263238" stroke-linecap="round" stroke-linejoin="round"/>
<path d="M130.811 47.6004L113.581 52.0076C111.515 52.5359 109.404 51.3212 108.866 49.2937C108.328 47.2662 109.565 45.1936 111.63 44.6653L128.861 40.2581C130.926 39.7298 133.037 40.9444 133.576 42.9719C134.114 44.9994 132.876 47.0721 130.811 47.6004Z" fill="#263238"/>
<path d="M88.9401 95.4743C88.9401 95.4743 83.7103 83.5307 86.3781 69.0448" stroke="#263238" stroke-linecap="round" stroke-linejoin="round"/>
<path d="M76.185 108.38C76.185 108.38 65.6149 111.554 64.5432 113.938C63.4715 116.327 69.2855 114.318 69.2855 114.318" stroke="#263238" stroke-linecap="round" stroke-linejoin="round"/>
<path d="M82.6844 59.4041C82.6844 59.4041 72.9515 68.8732 66.4383 71.4019" stroke="#263238" stroke-linecap="round" stroke-linejoin="round"/>
<path d="M50.7899 56.8573C50.7899 56.8573 49.019 69.6408 55.6334 72.0566" stroke="#263238" stroke-linecap="round" stroke-linejoin="round"/>
<path d="M32.0553 82.6727C32.0553 82.6727 32.0001 65.911 35.3947 60.7271" stroke="#263238" stroke-linecap="round" stroke-linejoin="round"/>
<path d="M30.7906 65.5994C30.7906 65.5994 29.8384 76.0078 31.9727 79.4035" stroke="#263238" stroke-linecap="round" stroke-linejoin="round"/>
<path d="M23.8218 85.1472C23.8218 85.1472 16.4209 82.6456 14.8846 85.7478C13.3483 88.85 19.3003 86.1 19.3003 86.1" stroke="#263238" stroke-linecap="round" stroke-linejoin="round"/>
<path d="M28.2743 96.0162C28.2743 96.0162 21.0068 100.035 20.6296 102.338" stroke="#263238" stroke-linecap="round" stroke-linejoin="round"/>
<path d="M40.1464 84.8944C40.1464 84.8944 54.0605 105.54 61.742 103.643" stroke="#263238" stroke-linecap="round" stroke-linejoin="round"/>
<path d="M49.6537 113.853C49.6537 113.853 38.7432 121.705 37.1563 121.041" stroke="#263238" stroke-linecap="round" stroke-linejoin="round"/>
<path opacity="0.2" d="M126.078 80.3472C126.814 79.7557 127.301 79.3628 127.458 79.2364C127.292 79.3764 126.818 79.7827 126.078 80.3472Z" fill="black"/>
</svg>
