<svg width="13" height="11" viewBox="0 0 13 11" fill="none" xmlns="http://www.w3.org/2000/svg">
<g clip-path="url(#clip0_53_7131)">
<path d="M4.40258 7.14471C6.37622 3.80235 9.19639 1.38099 13.0002 0C9.15302 2.97525 6.40299 6.68321 4.53108 11C4.27461 10.6124 4.02991 10.2283 3.76968 9.85325C2.90602 8.60661 1.95882 7.4219 0.788341 6.40601C0.644843 6.28165 0.492242 6.16627 0.34446 6.0459C-0.021783 5.74823 -0.0940676 5.43307 0.118503 5.02152C0.333215 4.60548 0.690355 4.32778 1.13531 4.14198C1.48227 3.99664 1.77141 4.08954 2.03539 4.32378C2.87442 5.06697 3.59245 5.90056 4.19322 6.82256C4.25694 6.92045 4.32012 7.01884 4.40204 7.1452L4.40258 7.14471Z" fill="white"/>
</g>
<defs>
<clipPath id="clip0_53_7131">
<rect width="13" height="11" fill="white"/>
</clipPath>
</defs>
</svg>
