<svg width="20" height="21" viewBox="0 0 20 21" fill="none" xmlns="http://www.w3.org/2000/svg">
<path d="M15.2525 6.70101C15.2525 5.18901 14.6519 3.73893 13.5827 2.66979C12.5136 1.60064 11.0635 1 9.55152 1C8.03951 1 6.58944 1.60064 5.52029 2.66979C4.45115 3.73893 3.85051 5.18901 3.85051 6.70101C3.85051 13.3522 1 15.2525 1 15.2525H18.103C18.103 15.2525 15.2525 13.3522 15.2525 6.70101Z" stroke="#061E35" stroke-width="2" stroke-linecap="round" stroke-linejoin="round"/>
<path d="M11.1953 19.0532C11.0282 19.3412 10.7885 19.5802 10.5 19.7464C10.2115 19.9125 9.88442 20 9.55151 20C9.21859 20 8.89151 19.9125 8.60302 19.7464C8.31454 19.5802 8.07476 19.3412 7.90771 19.0532" stroke="#061E35" stroke-width="2" stroke-linecap="round" stroke-linejoin="round"/>
</svg>
