<svg width="179" height="26" viewBox="0 0 179 26" fill="none" xmlns="http://www.w3.org/2000/svg">
<rect x="0.5" y="0.759627" width="9.4932" height="9.4932" rx="1.5" stroke="#061E35"/>
<rect x="0.5" y="15.0004" width="9.4932" height="9.4932" rx="1.5" stroke="#061E35"/>
<rect x="13.242" y="0.759627" width="9.4932" height="9.4932" rx="1.5" stroke="#061E35"/>
<rect x="13.242" y="15.0004" width="9.4932" height="9.4932" rx="4.7346" stroke="#061E35"/>
<g clip-path="url(#clip0_489_471)">
<path d="M175.572 0.275165H153.362C151.62 0.275165 150.209 1.68689 150.209 3.42834V21.9787C150.209 23.7201 151.62 25.1319 153.362 25.1319H175.572C177.313 25.1319 178.725 23.7201 178.725 21.9787V3.42834C178.725 1.68689 177.313 0.275165 175.572 0.275165Z" stroke="#061E35" stroke-miterlimit="10"/>
<path d="M157.588 9.35496C158.597 9.35496 159.415 8.537 159.415 7.52799C159.415 6.51898 158.597 5.70102 157.588 5.70102C156.579 5.70102 155.761 6.51898 155.761 7.52799C155.761 8.537 156.579 9.35496 157.588 9.35496Z" stroke="#061E35" stroke-miterlimit="10"/>
<path d="M171.346 9.35496C172.355 9.35496 173.173 8.537 173.173 7.52799C173.173 6.51898 172.355 5.70102 171.346 5.70102C170.337 5.70102 169.519 6.51898 169.519 7.52799C169.519 8.537 170.337 9.35496 171.346 9.35496Z" stroke="#061E35" stroke-miterlimit="10"/>
<path d="M172.039 17.5599H156.895C156.269 17.5599 155.761 18.0674 155.761 18.6935V18.699C155.761 19.325 156.269 19.8326 156.895 19.8326H172.039C172.665 19.8326 173.173 19.325 173.173 18.699V18.6935C173.173 18.0674 172.665 17.5599 172.039 17.5599Z" stroke="#061E35" stroke-miterlimit="10"/>
</g>
<defs>
<clipPath id="clip0_489_471">
<rect width="29" height="25.3489" fill="white" transform="translate(149.934) scale(1.00229)"/>
</clipPath>
</defs>
</svg>
