<svg width="19" height="19" viewBox="0 0 19 19" fill="none" xmlns="http://www.w3.org/2000/svg">
<path d="M15.1593 6.08626C15.1593 4.74013 14.5631 3.44914 13.5017 2.49728C12.4404 1.54542 11.0009 1.01068 9.49987 1.01068C7.99889 1.01068 6.55938 1.54542 5.49803 2.49728C4.43667 3.44914 3.84041 4.74013 3.84041 6.08626C3.84041 12.0078 1.01068 13.6996 1.01068 13.6996H17.9891C17.9891 13.6996 15.1593 12.0078 15.1593 6.08626Z" stroke="#FCA311" stroke-width="2" stroke-linecap="round" stroke-linejoin="round"/>
<path d="M11.1319 17.0834C10.9661 17.3397 10.728 17.5526 10.4416 17.7005C10.1553 17.8484 9.83057 17.9263 9.50007 17.9263C9.16958 17.9263 8.84489 17.8484 8.5585 17.7005C8.27212 17.5526 8.0341 17.3397 7.86826 17.0834" stroke="#FCA311" stroke-width="2" stroke-linecap="round" stroke-linejoin="round"/>
</svg>
