<svg width="43" height="42" viewBox="0 0 43 42" fill="none" xmlns="http://www.w3.org/2000/svg">
<path d="M24.9519 28.8939L23.5952 28.2151C23.8398 27.6269 23.8352 26.8893 23.7937 26.4006C24.2367 26.5997 24.6843 26.8078 25.1042 27.0024C25.0811 27.5499 25.035 28.197 24.9519 28.8939Z" stroke="white" stroke-linecap="round" stroke-linejoin="round"/>
<path d="M26.9267 27.8802C27.3651 28.102 27.8265 28.2468 28.2926 28.3282C28.6156 30.0749 28.7541 32.9799 27.1805 35.9935C26.8298 36.6632 23.152 34.817 23.4981 34.1473C24.3379 32.5365 24.7486 30.5681 24.947 28.8984C25.0301 28.2015 25.0763 27.5544 25.0993 27.0069C25.8653 27.3644 26.5437 27.6902 26.9221 27.8848L26.9267 27.8802Z" stroke="white" stroke-linecap="round" stroke-linejoin="round"/>
<path d="M31.3106 19.4773C32.4919 20.0701 33.3179 21.0792 33.6917 22.2285C34.0747 23.3733 34.0055 24.6675 33.401 25.8259C32.7965 26.9888 31.7674 27.7943 30.5953 28.1698C29.8616 28.4051 29.0725 28.464 28.2927 28.3327C27.8266 28.2513 27.3697 28.1065 26.9267 27.8848C26.5483 27.6947 25.87 27.3689 25.104 27.0069C24.684 26.8078 24.2364 26.6042 23.7934 26.4051C22.7321 25.9254 21.703 25.482 21.1724 25.3146L25.8192 16.4094C26.8021 17.1153 30.2215 18.9343 31.3106 19.4819V19.4773Z" stroke="white" stroke-linecap="round" stroke-linejoin="round"/>
<path d="M21.311 12.2012C22.6215 13.7985 24.1351 15.2148 25.8195 16.4049L21.1726 25.3101C19.2021 24.6675 17.1487 24.2919 15.0582 24.1879L13.2539 24.0974L20.1804 10.8256L21.311 12.2057V12.2012Z" stroke="white" stroke-linecap="round" stroke-linejoin="round"/>
<path d="M11.1635 24.4684L19.2713 8.9296C19.4005 8.68525 19.7051 8.5857 19.9542 8.7124L20.5541 9.01105C20.8033 9.13775 20.9048 9.4364 20.7756 9.68075L20.185 10.812L13.2585 24.0838L12.6678 25.215C12.5386 25.4594 12.2341 25.5589 11.9849 25.4322L11.385 25.1336C11.1358 25.0069 11.0343 24.7082 11.1635 24.4639V24.4684Z" stroke="white" stroke-linecap="round" stroke-linejoin="round"/>
<path d="M11.4038 14.7894L8.27972 13.2238" stroke="white" stroke-linecap="round" stroke-linejoin="round"/>
<path d="M15.0629 9.87531L13.0925 6.49514" stroke="white" stroke-linecap="round" stroke-linejoin="round"/>
<path d="M9.47939 20.5724L5.53392 20.9842" stroke="white" stroke-linecap="round" stroke-linejoin="round"/>
<path d="M35.5933 5.94762C32.9122 3.51771 29.5805 1.76654 25.8842 0.974664" stroke="white" stroke-linecap="round" stroke-linejoin="round"/>
<path d="M29.5436 39.885C37.0469 36.7718 42.3076 29.4911 42.3076 20.9977C42.3076 15.8935 40.4017 11.2238 37.2546 7.63545" stroke="white" stroke-linecap="round" stroke-linejoin="round"/>
<path d="M7.8042 36.5637C11.4589 39.6407 16.212 41.4959 21.408 41.4959" stroke="white" stroke-linecap="round" stroke-linejoin="round"/>
<path d="M0.859476 24.767C1.57012 28.5318 3.33289 31.9346 5.83399 34.6722" stroke="white" stroke-linecap="round" stroke-linejoin="round"/>
<path d="M21.4081 0.504068C9.86244 0.504068 0.504068 9.68074 0.504068 21.0023" stroke="white" stroke-linecap="round" stroke-linejoin="round"/>
</svg>
