<svg width="194" height="80" viewBox="0 0 194 80" fill="none" xmlns="http://www.w3.org/2000/svg">
<g opacity="0.5">
<path d="M0 10.0258C0 4.48872 4.48872 0 10.0258 0H57.1473C62.6844 0 67.1731 4.48872 67.1731 10.0258V66.1705C67.1731 71.7077 62.6844 76.1964 57.1473 76.1964H10.0258C4.48872 76.1964 0 71.7077 0 66.1705V10.0258Z" fill="#E8F3FF"/>
<path d="M126.827 13.5349C126.827 7.99777 131.316 0 136.853 0H183.974C189.511 0 194 7.99777 194 13.5349V69.6796C194 75.2167 189.511 79.7054 183.974 79.7054H136.853C131.316 79.7054 126.827 75.2167 126.827 69.6796V13.5349Z" fill="#E8F3FF"/>
</g>
</svg>
