<svg width="34" height="33" viewBox="0 0 34 33" fill="none" xmlns="http://www.w3.org/2000/svg">
<path d="M9.08667 13.0918L25.1545 16.1288L23.3031 25.5474C23.223 25.9549 22.819 26.227 22.3988 26.1475L7.84275 23.3963C7.42713 23.3178 7.14973 22.9216 7.23072 22.5096L9.0821 13.091L9.08667 13.0918Z" stroke="white" stroke-linecap="round" stroke-linejoin="round"/>
<path d="M25.5567 16.2121L8.67589 13.0215L9.16448 10.5359C9.2446 10.1283 9.6486 9.8563 10.0688 9.93572L25.4378 12.8406C25.8535 12.9192 26.1309 13.3153 26.0499 13.7274L25.5613 16.213L25.5567 16.2121Z" stroke="white" stroke-linecap="round" stroke-linejoin="round"/>
<path d="M18.9075 11.6066L16.6102 11.1724L13.9797 24.5546L16.277 24.9888L18.9075 11.6066Z" stroke="white" stroke-linecap="round" stroke-linejoin="round"/>
<path d="M17.7534 11.3891C17.7534 11.3891 21.735 8.53841 23.5769 9.40046C25.4189 10.2625 24.5118 12.6662 23.5816 12.4883" stroke="white" stroke-linecap="round" stroke-linejoin="round"/>
<path d="M19.3302 11.6856C19.3302 11.6856 22.5723 10.1029 23.042 10.819C23.5118 11.5351 22.1118 12.2101 21.0373 12.0094" stroke="white" stroke-linecap="round" stroke-linejoin="round"/>
<path d="M17.8605 11.193C17.8605 11.193 19.5443 8.19634 19.3211 7.23851H20.4421C20.4421 7.23851 20.8095 8.37422 19.4978 10.3172" stroke="white" stroke-linecap="round" stroke-linejoin="round"/>
<path d="M17.7532 11.3891C17.7532 11.3891 15.1345 7.29322 13.0972 7.42093C11.0599 7.54864 10.9947 10.112 11.9204 10.2853" stroke="white" stroke-linecap="round" stroke-linejoin="round"/>
<path d="M16.1814 11.0926C16.1814 11.0926 13.7719 8.44263 13.0649 8.93523C12.3579 9.42782 13.3998 10.5681 14.4743 10.7688" stroke="white" stroke-linecap="round" stroke-linejoin="round"/>
<path d="M17.73 11.1702C17.73 11.1702 17.3067 7.77215 17.8696 6.96483L16.8276 6.55434C16.8276 6.55434 16.0555 7.47567 16.5393 9.75622" stroke="white" stroke-linecap="round" stroke-linejoin="round"/>
<path d="M29.6146 6.58628C31.3821 8.78016 32.5682 11.4256 32.9729 14.2945" stroke="white" stroke-linecap="round" stroke-linejoin="round"/>
<path d="M2.32461 9.15416C5.24569 3.62157 11.3437 0.0456726 18.0789 0.556514C22.1302 0.866668 25.7211 2.59988 28.3771 5.21794" stroke="white" stroke-linecap="round" stroke-linejoin="round"/>
<path d="M3.65044 25.9344C1.43172 22.9606 0.245617 19.225 0.55726 15.2615" stroke="white" stroke-linecap="round" stroke-linejoin="round"/>
<path d="M12.5858 31.9459C9.64149 31.1751 7.05067 29.6243 5.02731 27.5536" stroke="white" stroke-linecap="round" stroke-linejoin="round"/>
<path d="M33.0751 17.7381C32.3774 26.5456 24.5351 33.1272 15.5533 32.4431" stroke="white" stroke-linecap="round" stroke-linejoin="round"/>
</svg>
